<?xml version="1.0" encoding="UTF-8"?><svg id="Calque_2" xmlns="http://www.w3.org/2000/svg" xmlns:xlink="http://www.w3.org/1999/xlink" viewBox="0 0 155.45 134.81"><defs><style>.cls-1{fill:url(#Dégradé_sans_nom_24);}</style><linearGradient id="Dégradé_sans_nom_24" x1="-39.66" y1="-1.83" x2="204.89" y2="175.94" gradientUnits="userSpaceOnUse"><stop offset=".26" stop-color="#764ba2"/><stop offset=".42" stop-color="#6f61c1"/><stop offset=".61" stop-color="#6876de"/><stop offset=".71" stop-color="#667eea"/></linearGradient></defs><g id="Calque_1-2"><path class="cls-1" d="M51.95,86.13L1.29,126.15c-.34-.34-.51-.82-.65-1.27-.23-.71-.57-2.24-.63-2.95L.61,43.37l1.09-4.03.95.54c16.5,15.03,32.14,31.1,48.77,45.99.15.14.32.26.53.26ZM154.28,40.92c-.14-.21-.23-.57-.56-.33l-50.09,45.67.44.61,49.64,38.15.58.21.54-1.58.62-79.62c-.52-.98-.56-2.17-1.17-3.12ZM6.11,37c20.61,19.89,42.35,38.64,63,58.49,6,5.07,11.77,4.55,17.58-.39,13.21-11.23,26.07-23.85,38.94-35.56,7.75-7.05,15.72-13.93,23.37-21.08.3-.28,2.11-1.94,1.95-2.18-2.59-1.94-5.37-3.29-8.66-3.59l-58.89-.46,7.33-12.66c1.55-1.97,5.86-1.55,5.38-4.82-.45-3.04-4.97-3.45-5.85-1-.35.98.2,2.35.08,3.43-.15,1.27-9.82,12.84-11.45,14.53-.15.16-.23.34-.35.47h-.82s-14.57-21.89-14.57-21.89c-1.86-2.8.64-5.49-.83-8.18-2.26-4.16-9.94-1.87-7.69,4.07,1.07,2.83,4.78,2.1,6.3,4.54l9.53,21.39-57.01-.44c-3.31.25-6.36,1.41-8.9,3.55-.06.22,1.31,1.52,1.57,1.77ZM99.97,89.85c-.12-.02-1.11.78-1.3.94-7.8,6.69-13.47,15.62-25.37,12.61-2.8-.71-5.25-2.17-7.38-4.07l-10.23-9.47L3.8,130.12c2.49,2.23,5.52,3.34,8.84,3.68l128.66,1c3.29-.31,6.59-1.48,9.08-3.71.31-.28,1.45-1.23,1.22-1.64l-51.63-39.61Z"/></g></svg>