<?xml version="1.0" encoding="UTF-8"?><svg id="Calque_2" xmlns="http://www.w3.org/2000/svg" xmlns:xlink="http://www.w3.org/1999/xlink" viewBox="0 0 767.16 134.81"><defs><style>.cls-1{fill:url(#Dégradé_sans_nom_24);}</style><linearGradient id="Dégradé_sans_nom_24" x1="-39.66" y1="-1.83" x2="204.89" y2="175.94" gradientUnits="userSpaceOnUse"><stop offset=".26" stop-color="#764ba2"/><stop offset=".42" stop-color="#6f61c1"/><stop offset=".61" stop-color="#6876de"/><stop offset=".71" stop-color="#667eea"/></linearGradient></defs><g id="Calque_1-2"><path class="cls-1" d="M51.95,86.13L1.29,126.15c-.34-.34-.51-.82-.65-1.27-.23-.71-.57-2.24-.63-2.95L.61,43.37l1.09-4.03.95.54c16.5,15.03,32.14,31.1,48.77,45.99.15.14.32.26.53.26ZM154.28,40.92c-.14-.21-.23-.57-.56-.33l-50.09,45.67.44.61,49.64,38.15.58.21.54-1.58.62-79.62c-.52-.98-.56-2.17-1.17-3.12ZM6.11,37c20.61,19.89,42.35,38.64,63,58.49,6,5.07,11.77,4.55,17.58-.39,13.21-11.23,26.07-23.85,38.94-35.56,7.75-7.05,15.72-13.93,23.37-21.08.3-.28,2.11-1.94,1.95-2.18-2.59-1.94-5.37-3.29-8.66-3.59l-58.89-.46,7.33-12.66c1.55-1.97,5.86-1.55,5.38-4.82-.45-3.04-4.97-3.45-5.85-1-.35.98.2,2.35.08,3.43-.15,1.27-9.82,12.84-11.45,14.53-.15.16-.23.34-.35.47h-.82s-14.57-21.89-14.57-21.89c-1.86-2.8.64-5.49-.83-8.18-2.26-4.16-9.94-1.87-7.69,4.07,1.07,2.83,4.78,2.1,6.3,4.54l9.53,21.39-57.01-.44c-3.31.25-6.36,1.41-8.9,3.55-.06.22,1.31,1.52,1.57,1.77ZM99.97,89.85c-.12-.02-1.11.78-1.3.94-7.8,6.69-13.47,15.62-25.37,12.61-2.8-.71-5.25-2.17-7.38-4.07l-10.23-9.47L3.8,130.12c2.49,2.23,5.52,3.34,8.84,3.68l128.66,1c3.29-.31,6.59-1.48,9.08-3.71.31-.28,1.45-1.23,1.22-1.64l-51.63-39.61Z"/><path d="M262.12,41.19v82.87h-13.35l-39.05-56.44h-.69v56.44h-15.01V41.19h13.43l39.01,56.48h.73v-56.48h14.93Z"/><path d="M303.01,125.27c-6.23,0-11.61-1.3-16.12-3.91-4.52-2.6-7.99-6.3-10.42-11.09s-3.64-10.43-3.64-16.93,1.22-12.01,3.66-16.85c2.44-4.84,5.86-8.62,10.26-11.33s9.56-4.07,15.5-4.07c3.83,0,7.45.61,10.86,1.84,3.41,1.23,6.43,3.12,9.06,5.69,2.63,2.56,4.7,5.82,6.21,9.77s2.27,8.65,2.27,14.1v4.49h-50.94v-9.87h36.9c-.03-2.81-.63-5.31-1.82-7.51-1.19-2.2-2.84-3.93-4.96-5.2-2.12-1.27-4.58-1.9-7.38-1.9-2.99,0-5.62.72-7.89,2.16-2.27,1.44-4.03,3.33-5.28,5.66-1.25,2.33-1.9,4.89-1.92,7.67v8.62c0,3.61.66,6.71,1.98,9.29,1.32,2.58,3.17,4.55,5.54,5.91,2.37,1.36,5.15,2.04,8.33,2.04,2.13,0,4.06-.3,5.79-.91,1.73-.61,3.22-1.5,4.49-2.69,1.27-1.19,2.23-2.66,2.87-4.41l13.68,1.54c-.86,3.62-2.5,6.76-4.92,9.45-2.41,2.68-5.5,4.76-9.25,6.23-3.75,1.47-8.04,2.21-12.87,2.21Z"/><path d="M353.25,124.05l-17.56-62.15h14.93l10.92,43.7h.57l11.17-43.7h14.77l11.17,43.46h.61l10.76-43.46h14.97l-17.6,62.15h-15.25l-11.65-42h-.85l-11.65,42h-15.29Z"/><path d="M482.67,78.33l-13.35,1.46c-.38-1.35-1.03-2.62-1.96-3.8-.93-1.19-2.18-2.14-3.74-2.87-1.56-.73-3.48-1.09-5.75-1.09-3.05,0-5.6.66-7.67,1.98-2.06,1.32-3.08,3.03-3.05,5.14-.03,1.81.64,3.28,2,4.41,1.36,1.13,3.62,2.06,6.78,2.79l10.6,2.27c5.88,1.27,10.26,3.28,13.13,6.03,2.87,2.75,4.32,6.35,4.35,10.8-.03,3.91-1.17,7.36-3.42,10.34s-5.38,5.31-9.37,6.98c-3.99,1.67-8.58,2.51-13.76,2.51-7.61,0-13.73-1.6-18.37-4.79-4.64-3.2-7.4-7.65-8.29-13.37l14.28-1.38c.65,2.81,2.02,4.92,4.13,6.35,2.1,1.43,4.84,2.14,8.21,2.14s6.28-.71,8.4-2.14,3.18-3.2,3.18-5.3c0-1.78-.68-3.25-2.04-4.41-1.36-1.16-3.47-2.05-6.33-2.67l-10.6-2.23c-5.96-1.24-10.37-3.34-13.23-6.29-2.86-2.95-4.28-6.7-4.25-11.23-.03-3.83,1.02-7.15,3.14-9.97,2.12-2.82,5.07-5,8.86-6.56,3.79-1.55,8.17-2.33,13.13-2.33,7.28,0,13.02,1.55,17.22,4.65,4.19,3.1,6.79,7.3,7.79,12.58Z"/><path d="M508.47,41.19v82.87h-14.65V41.19h14.65Z"/><path d="M548.76,125.27c-6.23,0-11.61-1.3-16.12-3.91-4.52-2.6-7.99-6.3-10.42-11.09s-3.64-10.43-3.64-16.93,1.22-12.01,3.66-16.85c2.44-4.84,5.86-8.62,10.26-11.33,4.4-2.71,9.56-4.07,15.5-4.07,3.83,0,7.45.61,10.86,1.84,3.41,1.23,6.43,3.12,9.06,5.69,2.63,2.56,4.7,5.82,6.21,9.77s2.27,8.65,2.27,14.1v4.49h-50.94v-9.87h36.9c-.03-2.81-.63-5.31-1.82-7.51-1.19-2.2-2.84-3.93-4.96-5.2-2.12-1.27-4.58-1.9-7.38-1.9-2.99,0-5.62.72-7.89,2.16-2.27,1.44-4.03,3.33-5.28,5.66-1.25,2.33-1.89,4.89-1.92,7.67v8.62c0,3.61.66,6.71,1.98,9.29,1.32,2.58,3.17,4.55,5.54,5.91,2.37,1.36,5.15,2.04,8.33,2.04,2.13,0,4.06-.3,5.79-.91,1.73-.61,3.22-1.5,4.49-2.69,1.27-1.19,2.23-2.66,2.87-4.41l13.68,1.54c-.86,3.62-2.5,6.76-4.92,9.45-2.41,2.68-5.5,4.76-9.25,6.23-3.75,1.47-8.04,2.21-12.87,2.21Z"/><path d="M617.53,61.9v11.33h-35.73v-11.33h35.73ZM590.63,47.01h14.65v58.35c0,1.97.3,3.47.91,4.51.61,1.04,1.41,1.75,2.41,2.12s2.1.57,3.32.57c.92,0,1.76-.07,2.53-.2s1.36-.26,1.76-.36l2.47,11.45c-.78.27-1.9.57-3.34.89-1.44.32-3.2.51-5.28.57-3.67.11-6.97-.45-9.91-1.68-2.94-1.23-5.27-3.14-6.98-5.72-1.71-2.59-2.56-5.83-2.53-9.71v-60.77Z"/><path d="M658.55,61.9v11.33h-35.73v-11.33h35.73ZM631.64,47.01h14.65v58.35c0,1.97.3,3.47.91,4.51.61,1.04,1.41,1.75,2.41,2.12s2.1.57,3.32.57c.92,0,1.76-.07,2.53-.2s1.36-.26,1.76-.36l2.47,11.45c-.78.27-1.9.57-3.34.89-1.44.32-3.2.51-5.28.57-3.67.11-6.97-.45-9.91-1.68-2.94-1.23-5.27-3.14-6.98-5.72-1.71-2.59-2.56-5.83-2.53-9.71v-60.77Z"/><path d="M686.41,125.31c-3.94,0-7.48-.71-10.62-2.12-3.14-1.42-5.62-3.51-7.45-6.29-1.82-2.78-2.73-6.2-2.73-10.28,0-3.51.65-6.41,1.94-8.7,1.29-2.29,3.06-4.13,5.3-5.5,2.24-1.38,4.77-2.42,7.59-3.14,2.82-.71,5.74-1.23,8.76-1.56,3.64-.38,6.59-.72,8.86-1.03,2.27-.31,3.92-.8,4.96-1.46,1.04-.66,1.56-1.69,1.56-3.1v-.24c0-3.05-.9-5.41-2.71-7.08-1.81-1.67-4.41-2.51-7.81-2.51-3.59,0-6.43.78-8.52,2.35-2.09,1.56-3.5,3.41-4.23,5.54l-13.68-1.94c1.08-3.78,2.86-6.94,5.34-9.49,2.48-2.55,5.52-4.46,9.1-5.75,3.59-1.28,7.55-1.92,11.9-1.92,2.99,0,5.97.35,8.94,1.05,2.97.7,5.68,1.85,8.13,3.46,2.45,1.61,4.43,3.78,5.93,6.53s2.25,6.19,2.25,10.32v41.59h-14.08v-8.54h-.49c-.89,1.73-2.14,3.34-3.74,4.84-1.61,1.5-3.62,2.7-6.03,3.6s-5.24,1.36-8.48,1.36ZM690.22,114.54c2.94,0,5.49-.59,7.65-1.76,2.16-1.17,3.82-2.73,5-4.67,1.17-1.94,1.76-4.06,1.76-6.35v-7.32c-.46.38-1.23.73-2.33,1.05-1.09.32-2.31.61-3.66.85-1.35.24-2.68.46-4.01.65-1.32.19-2.47.35-3.44.49-2.18.3-4.14.78-5.87,1.46-1.73.67-3.09,1.61-4.09,2.81-1,1.2-1.5,2.74-1.5,4.63,0,2.7.98,4.73,2.95,6.11,1.97,1.38,4.48,2.06,7.53,2.06Z"/><path d="M731.72,124.05v-62.15h14.2v10.36h.65c1.13-3.59,3.08-6.36,5.85-8.31,2.76-1.96,5.93-2.93,9.49-2.93.81,0,1.72.03,2.73.1,1.01.07,1.85.17,2.53.3v13.47c-.62-.22-1.6-.41-2.93-.59-1.33-.17-2.62-.26-3.86-.26-2.67,0-5.06.57-7.18,1.72-2.12,1.15-3.78,2.73-5,4.75-1.21,2.02-1.82,4.36-1.82,7v36.54h-14.65Z"/></g></svg>